<svg width="25" height="30" viewBox="0 0 25 30" fill="none" xmlns="http://www.w3.org/2000/svg">
<path d="M23.1274 20.6836C23.7744 20.6836 24.2993 20.159 24.2993 19.5117V7.61719C24.2993 5.03242 22.1963 2.92969 19.6118 2.92969H15.9203V1.17188C15.9203 0.524597 15.3955 0 14.7485 0H10.061C9.4137 0 8.8891 0.524597 8.8891 1.17188V2.92969H5.2041C2.61934 2.92969 0.516602 5.03242 0.516602 7.61719V25.3125C0.516602 27.8973 2.61934 30 5.2041 30H19.6118C22.1963 30 24.2993 27.8973 24.2993 25.3125C24.2993 24.6652 23.7744 24.1406 23.1274 24.1406C22.4801 24.1406 21.9555 24.6652 21.9555 25.3125C21.9555 26.6048 20.904 27.6562 19.6118 27.6562H5.2041C3.91183 27.6562 2.86035 26.6048 2.86035 25.3125V7.61719C2.86035 6.32492 3.91183 5.27344 5.2041 5.27344H8.8891V5.85938C8.8891 7.798 10.4661 9.375 12.4047 9.375C14.3431 9.375 15.9203 7.798 15.9203 5.85938V5.27344H19.6118C20.904 5.27344 21.9555 6.32492 21.9555 7.61719V19.5117C21.9555 20.159 22.4801 20.6836 23.1274 20.6836ZM13.5766 5.85938C13.5766 6.50551 13.0509 7.03125 12.4047 7.03125C11.7584 7.03125 11.2328 6.50551 11.2328 5.85938V2.34375H13.5766V5.85938ZM18.6978 13.3374C19.2295 13.7064 19.3614 14.4367 18.9924 14.9684L13.7785 22.4803C13.7629 22.5027 13.7464 22.5247 13.7293 22.5462C13.2028 23.2015 12.4198 23.6094 11.5812 23.6652C11.5148 23.6696 11.4482 23.6719 11.3821 23.6719C10.6124 23.6719 9.86391 23.375 9.30338 22.8413C9.29788 22.836 9.29239 22.831 9.28712 22.8257L6.1899 19.7623C5.72984 19.3071 5.72572 18.5651 6.18074 18.105C6.63599 17.6447 7.37802 17.6408 7.83807 18.0959L10.9255 21.1494C11.109 21.3201 11.3166 21.3338 11.4251 21.3265C11.5302 21.3197 11.7252 21.2807 11.8822 21.102L17.0668 13.632C17.436 13.1003 18.1661 12.9682 18.6978 13.3374Z" fill="white"/>
</svg>
