<svg width="36" height="29" viewBox="0 0 36 29" fill="none" xmlns="http://www.w3.org/2000/svg">
<path d="M8.5436 0.799664C10.029 0.996916 11.066 1.71589 11.7019 2.85469L32.9745 2.85495C34.1722 2.85495 35.143 3.74293 35.143 4.83831V17.3996C35.143 17.7054 35.0674 17.995 34.9323 18.2536L34.9641 18.2864L34.8724 18.3599C34.5026 18.97 33.7913 19.383 32.9745 19.383L29.3263 19.3825C29.5941 19.8406 29.7666 20.3819 29.8539 21.0186C30.4435 25.321 28.0948 28.2875 21.9684 28.0839C18.3115 27.9623 15.7178 27.2927 13.2803 25.8638C11.5031 24.822 9.91701 23.4985 7.11525 20.8389C5.29125 19.1074 3.87269 17.408 2.82941 15.7254C1.16743 13.0451 0.46199 10.4221 0.575469 7.75065C0.746557 3.72302 4.7356 0.293988 8.5436 0.799664ZM2.02006 7.80198C1.91707 10.2263 2.55703 12.6058 4.08694 15.0732C5.06773 16.6549 6.41306 18.2666 8.15632 19.9215C10.8831 22.5099 12.4064 23.781 14.0604 24.7505C16.2673 26.0443 18.6101 26.6491 22.0209 26.7625C27.1698 26.9337 28.9069 24.7397 28.4194 21.183C28.1369 19.1221 26.554 18.481 22.137 18.4112C20.837 18.3907 20.2435 18.9377 19.6567 20.3542C19.6165 20.4513 19.576 20.5524 19.5245 20.6831C19.514 20.7098 19.4209 20.9477 19.3933 21.0174C18.7401 22.6694 18.116 23.3534 16.6814 23.1415C13.4754 22.6681 6.17694 16.031 5.72892 12.7454C5.47915 10.9136 6.43602 10.1925 8.87558 9.42027C8.9198 9.40627 8.9198 9.40628 8.96379 9.39236C10.6078 8.87225 11.0639 8.57731 11.0764 7.91351C11.1031 6.49714 11.0333 5.36849 10.8203 4.49534L10.7864 4.46578L10.8079 4.44539C10.4469 3.01902 9.6928 2.28838 8.33589 2.10819C5.42028 1.72101 2.15929 4.52421 2.02006 7.80198ZM18.5307 19.3824L12.7057 19.3827C14.3271 20.7008 15.9261 21.6906 16.9118 21.8362C17.3815 21.9056 17.5992 21.6671 18.0338 20.5678C18.0604 20.5005 18.153 20.264 18.1642 20.2355C18.2182 20.0984 18.2612 19.9909 18.3048 19.8857C18.3777 19.7098 18.4528 19.542 18.5307 19.3824ZM18.9686 11.7154L12.8404 18.0601L19.4283 18.0604C20.0873 17.3974 20.9449 17.07 22.162 17.0892C24.8017 17.1309 26.6711 17.3967 27.9126 18.0601L32.8262 18.0601L26.7941 11.757L24.4139 13.8661C23.6066 14.5813 22.3433 14.6099 21.4995 13.9519L21.3963 13.8661L18.9686 11.7154ZM12.5219 7.93634C12.5041 8.878 12.1409 9.44153 11.2904 9.91079L11.2894 17.3996C11.2894 17.4789 11.3046 17.5549 11.3326 17.6253L17.9292 10.7944L12.4926 5.97618C12.5293 6.55003 12.5359 7.19256 12.5219 7.93634ZM33.6972 5.64097L27.8335 10.8361L33.6972 16.9627V5.64097ZM9.43638 10.642C9.39228 10.6559 9.39228 10.6559 9.34839 10.6698C7.49902 11.2552 7.03073 11.6081 7.16349 12.5817C7.30489 13.6188 8.4012 15.1741 9.84332 16.7162L9.84433 10.5092C9.71382 10.553 9.57788 10.5972 9.43638 10.642ZM32.9745 4.17719L12.5383 4.17659L22.4022 12.9164C22.6609 13.1456 23.0602 13.1632 23.3406 12.9693L23.4081 12.9164L33.225 4.21794C33.1469 4.19159 33.0626 4.17719 32.9745 4.17719Z" fill="white"/>
</svg>
