<svg width="31" height="32" viewBox="0 0 31 32" fill="none" xmlns="http://www.w3.org/2000/svg">
<path d="M13.5361 21C13.7723 20.9992 14.0001 21.0935 14.1739 21.2641C14.3477 21.4346 14.4547 21.6689 14.4736 21.92V31.08C14.4547 31.3311 14.3477 31.5654 14.1739 31.7359C14.0001 31.9065 13.7723 32.0008 13.5361 32H1.34863C1.11246 32.0008 0.884698 31.9065 0.710888 31.7359C0.537078 31.5654 0.430026 31.3311 0.411133 31.08V21.92C0.430026 21.6689 0.537078 21.4346 0.710888 21.2641C0.884698 21.0935 1.11246 20.9992 1.34863 21H13.5361ZM29.4736 13C29.7223 13 29.9607 13.1054 30.1365 13.2929C30.3124 13.4804 30.4111 13.7348 30.4111 14V31C30.4111 31.2652 30.3124 31.5196 30.1365 31.7071C29.9607 31.8946 29.7223 32 29.4736 32H17.2861C17.0375 32 16.799 31.8946 16.6232 31.7071C16.4474 31.5196 16.3486 31.2652 16.3486 31V14C16.3486 13.7348 16.4474 13.4804 16.6232 13.2929C16.799 13.1054 17.0375 13 17.2861 13H29.4736ZM12.5986 22.83H2.28613V30.17H12.5986V22.83ZM28.5361 15H18.2236V30H28.5361V15ZM13.5361 5.1411e-06C13.7848 5.1411e-06 14.0232 0.105362 14.199 0.292898C14.3749 0.480435 14.4736 0.734789 14.4736 1.00001V18C14.4736 18.2652 14.3749 18.5196 14.199 18.7071C14.0232 18.8946 13.7848 19 13.5361 19H1.34863C1.09999 19 0.861536 18.8946 0.68572 18.7071C0.509905 18.5196 0.411133 18.2652 0.411133 18V1.00001C0.411133 0.734789 0.509905 0.480435 0.68572 0.292898C0.861536 0.105362 1.09999 5.1411e-06 1.34863 5.1411e-06H13.5361ZM12.5986 2.00001H2.28613V17H12.5986V2.00001ZM29.4736 5.1411e-06C29.7098 -0.000802199 29.9376 0.0935036 30.1114 0.264069C30.2852 0.434634 30.3922 0.668891 30.4111 0.920005V10.08C30.3922 10.3311 30.2852 10.5654 30.1114 10.7359C29.9376 10.9065 29.7098 11.0008 29.4736 11H17.2861C17.05 11.0008 16.8222 10.9065 16.6484 10.7359C16.4746 10.5654 16.3675 10.3311 16.3486 10.08V0.920005C16.3675 0.668891 16.4746 0.434634 16.6484 0.264069C16.8222 0.0935036 17.05 -0.000802199 17.2861 5.1411e-06H29.4736ZM28.5361 1.83001H18.2236V9.17H28.5361V1.83001Z" fill="white"/>
</svg>
