<svg width="30" height="30" viewBox="0 0 30 30" fill="none" xmlns="http://www.w3.org/2000/svg">
<mask id="path-1-inside-1" fill="white">
<path d="M17.5 11.137L28.5125 13.3245C29.4 13.512 30 14.262 30 15.1495V27.8995C30 28.937 29.1625 29.7745 28.125 29.7745H16.875C17.225 29.7745 17.5 29.4995 17.5 29.1495V28.5245H28.125C28.4625 28.5245 28.75 28.2495 28.75 27.8995V15.1495C28.75 14.862 28.55 14.5995 28.2625 14.537L17.5 12.412V11.137Z"/>
</mask>
<path d="M17.5 11.137L28.5125 13.3245C29.4 13.512 30 14.262 30 15.1495V27.8995C30 28.937 29.1625 29.7745 28.125 29.7745H16.875C17.225 29.7745 17.5 29.4995 17.5 29.1495V28.5245H28.125C28.4625 28.5245 28.75 28.2495 28.75 27.8995V15.1495C28.75 14.862 28.55 14.5995 28.2625 14.537L17.5 12.412V11.137Z" fill="white"/>
<path d="M17.5 11.137L17.8897 9.17529L15.5 8.70061V11.137H17.5ZM28.5125 13.3245L28.9259 11.3677L28.9141 11.3652L28.9022 11.3628L28.5125 13.3245ZM17.5 28.5245V26.5245H15.5V28.5245H17.5ZM28.2625 14.537L28.6874 12.5826L28.6687 12.5785L28.6499 12.5748L28.2625 14.537ZM17.5 12.412H15.5V14.0557L17.1126 14.3741L17.5 12.412ZM17.1103 13.0986L28.1228 15.2861L28.9022 11.3628L17.8897 9.17529L17.1103 13.0986ZM28.0991 15.2813C28.1005 15.2816 28.0915 15.2797 28.0771 15.2709C28.0632 15.2624 28.0485 15.25 28.0355 15.2339C28.007 15.1988 28 15.1633 28 15.1495H32C32 13.317 30.7385 11.7506 28.9259 11.3677L28.0991 15.2813ZM28 15.1495V27.8995H32V15.1495H28ZM28 27.8995C28 27.8324 28.0579 27.7745 28.125 27.7745V31.7745C30.2671 31.7745 32 30.0415 32 27.8995H28ZM28.125 27.7745H16.875V31.7745H28.125V27.7745ZM16.875 31.7745C18.3296 31.7745 19.5 30.604 19.5 29.1495H15.5C15.5 28.3949 16.1204 27.7745 16.875 27.7745V31.7745ZM19.5 29.1495V28.5245H15.5V29.1495H19.5ZM17.5 30.5245H28.125V26.5245H17.5V30.5245ZM28.125 30.5245C29.541 30.5245 30.75 29.38 30.75 27.8995H26.75C26.75 27.119 27.384 26.5245 28.125 26.5245V30.5245ZM30.75 27.8995V15.1495H26.75V27.8995H30.75ZM30.75 15.1495C30.75 13.9639 29.9354 12.8539 28.6874 12.5826L27.8376 16.4913C27.1646 16.345 26.75 15.76 26.75 15.1495H30.75ZM28.6499 12.5748L17.8874 10.4498L17.1126 14.3741L27.8751 16.4991L28.6499 12.5748ZM19.5 12.412V11.137H15.5V12.412H19.5Z" fill="white" mask="url(#path-1-inside-1)"/>
<mask id="path-3-inside-2" fill="white">
<path d="M24.3752 17.2742C24.7252 17.2742 25.0002 17.5492 25.0002 17.8992C25.0002 18.2492 24.7252 18.5242 24.3752 18.5242H21.8752C21.5252 18.5242 21.2502 18.2492 21.2502 17.8992C21.2502 17.5492 21.5252 17.2742 21.8752 17.2742H24.3752Z"/>
</mask>
<path d="M24.3752 17.2742C24.7252 17.2742 25.0002 17.5492 25.0002 17.8992C25.0002 18.2492 24.7252 18.5242 24.3752 18.5242H21.8752C21.5252 18.5242 21.2502 18.2492 21.2502 17.8992C21.2502 17.5492 21.5252 17.2742 21.8752 17.2742H24.3752Z" fill="white"/>
<path d="M24.3752 19.2742C23.6206 19.2742 23.0002 18.6537 23.0002 17.8992H27.0002C27.0002 16.4446 25.8297 15.2742 24.3752 15.2742V19.2742ZM23.0002 17.8992C23.0002 17.1446 23.6206 16.5242 24.3752 16.5242V20.5242C25.8297 20.5242 27.0002 19.3537 27.0002 17.8992H23.0002ZM24.3752 16.5242H21.8752V20.5242H24.3752V16.5242ZM21.8752 16.5242C22.6297 16.5242 23.2502 17.1446 23.2502 17.8992H19.2502C19.2502 19.3537 20.4206 20.5242 21.8752 20.5242V16.5242ZM23.2502 17.8992C23.2502 18.6537 22.6297 19.2742 21.8752 19.2742V15.2742C20.4206 15.2742 19.2502 16.4446 19.2502 17.8992H23.2502ZM21.8752 19.2742H24.3752V15.2742H21.8752V19.2742Z" fill="white" mask="url(#path-3-inside-2)"/>
<mask id="path-5-inside-3" fill="white">
<path d="M24.3752 21.0242C24.7252 21.0242 25.0002 21.2992 25.0002 21.6492C25.0002 21.9992 24.7252 22.2742 24.3752 22.2742H21.8752C21.5252 22.2742 21.2502 21.9992 21.2502 21.6492C21.2502 21.2992 21.5252 21.0242 21.8752 21.0242H24.3752Z"/>
</mask>
<path d="M24.3752 21.0242C24.7252 21.0242 25.0002 21.2992 25.0002 21.6492C25.0002 21.9992 24.7252 22.2742 24.3752 22.2742H21.8752C21.5252 22.2742 21.2502 21.9992 21.2502 21.6492C21.2502 21.2992 21.5252 21.0242 21.8752 21.0242H24.3752Z" fill="white"/>
<path d="M24.3752 23.0242C23.6206 23.0242 23.0002 22.4037 23.0002 21.6492H27.0002C27.0002 20.1946 25.8297 19.0242 24.3752 19.0242V23.0242ZM23.0002 21.6492C23.0002 20.8946 23.6206 20.2742 24.3752 20.2742V24.2742C25.8297 24.2742 27.0002 23.1037 27.0002 21.6492H23.0002ZM24.3752 20.2742H21.8752V24.2742H24.3752V20.2742ZM21.8752 20.2742C22.6297 20.2742 23.2502 20.8946 23.2502 21.6492H19.2502C19.2502 23.1037 20.4206 24.2742 21.8752 24.2742V20.2742ZM23.2502 21.6492C23.2502 22.4037 22.6297 23.0242 21.8752 23.0242V19.0242C20.4206 19.0242 19.2502 20.1946 19.2502 21.6492H23.2502ZM21.8752 23.0242H24.3752V19.0242H21.8752V23.0242Z" fill="white" mask="url(#path-5-inside-3)"/>
<mask id="path-7-inside-4" fill="white">
<path d="M24.3752 24.7742C24.7252 24.7742 25.0002 25.0492 25.0002 25.3992C25.0002 25.7492 24.7252 26.0242 24.3752 26.0242H21.8752C21.5252 26.0242 21.2502 25.7492 21.2502 25.3992C21.2502 25.0492 21.5252 24.7742 21.8752 24.7742H24.3752Z"/>
</mask>
<path d="M24.3752 24.7742C24.7252 24.7742 25.0002 25.0492 25.0002 25.3992C25.0002 25.7492 24.7252 26.0242 24.3752 26.0242H21.8752C21.5252 26.0242 21.2502 25.7492 21.2502 25.3992C21.2502 25.0492 21.5252 24.7742 21.8752 24.7742H24.3752Z" fill="white"/>
<path d="M24.3752 26.7742C23.6206 26.7742 23.0002 26.1537 23.0002 25.3992H27.0002C27.0002 23.9446 25.8297 22.7742 24.3752 22.7742V26.7742ZM23.0002 25.3992C23.0002 24.6446 23.6206 24.0242 24.3752 24.0242V28.0242C25.8297 28.0242 27.0002 26.8537 27.0002 25.3992H23.0002ZM24.3752 24.0242H21.8752V28.0242H24.3752V24.0242ZM21.8752 24.0242C22.6297 24.0242 23.2502 24.6446 23.2502 25.3992H19.2502C19.2502 26.8537 20.4206 28.0242 21.8752 28.0242V24.0242ZM23.2502 25.3992C23.2502 26.1537 22.6297 26.7742 21.8752 26.7742V22.7742C20.4206 22.7742 19.2502 23.9446 19.2502 25.3992H23.2502ZM21.8752 26.7742H24.3752V22.7742H21.8752V26.7742Z" fill="white" mask="url(#path-7-inside-4)"/>
<mask id="path-9-inside-5" fill="white">
<path d="M17.4998 29.1495C17.4998 29.4995 17.2248 29.7745 16.8748 29.7745C16.5248 29.7745 16.2498 29.4995 16.2498 29.1495V28.5245V11.6495C16.2498 11.462 16.3373 11.287 16.4748 11.162C16.6248 11.0495 16.8123 10.9995 16.9998 11.037L17.4998 11.137V12.412V28.5245V29.1495Z"/>
</mask>
<path d="M17.4998 29.1495C17.4998 29.4995 17.2248 29.7745 16.8748 29.7745C16.5248 29.7745 16.2498 29.4995 16.2498 29.1495V28.5245V11.6495C16.2498 11.462 16.3373 11.287 16.4748 11.162C16.6248 11.0495 16.8123 10.9995 16.9998 11.037L17.4998 11.137V12.412V28.5245V29.1495Z" fill="white"/>
<path d="M16.4748 11.162L15.2748 9.56197L15.1993 9.6186L15.1295 9.68209L16.4748 11.162ZM16.9998 11.037L17.3921 9.07581L16.9998 11.037ZM17.4998 11.137H19.4998V9.49736L17.8921 9.17581L17.4998 11.137ZM15.4998 29.1495C15.4998 28.3949 16.1203 27.7745 16.8748 27.7745V31.7745C18.3294 31.7745 19.4998 30.604 19.4998 29.1495H15.4998ZM16.8748 27.7745C17.6294 27.7745 18.2498 28.3949 18.2498 29.1495H14.2498C14.2498 30.604 15.4203 31.7745 16.8748 31.7745V27.7745ZM18.2498 29.1495V28.5245H14.2498V29.1495H18.2498ZM18.2498 28.5245V11.6495H14.2498V28.5245H18.2498ZM18.2498 11.6495C18.2498 12.0942 18.0459 12.4367 17.8202 12.6418L15.1295 9.68209C14.6288 10.1373 14.2498 10.8297 14.2498 11.6495H18.2498ZM17.6749 12.762C17.412 12.9591 17.028 13.0822 16.6076 12.9981L17.3921 9.07581C16.5967 8.91673 15.8376 9.13987 15.2748 9.56197L17.6749 12.762ZM16.6076 12.9981L17.1076 13.0981L17.8921 9.17581L17.3921 9.07581L16.6076 12.9981ZM15.4998 11.137V12.412H19.4998V11.137H15.4998ZM15.4998 12.412V28.5245H19.4998V12.412H15.4998ZM15.4998 28.5245V29.1495H19.4998V28.5245H15.4998Z" fill="white" mask="url(#path-9-inside-5)"/>
<mask id="path-11-inside-6" fill="white">
<path d="M16.2502 28.5242V29.1492C16.2502 29.4992 16.5252 29.7742 16.8752 29.7742H11.8752C12.2252 29.7742 12.5002 29.4992 12.5002 29.1492V28.5242H16.2502Z"/>
</mask>
<path d="M16.2502 28.5242V29.1492C16.2502 29.4992 16.5252 29.7742 16.8752 29.7742H11.8752C12.2252 29.7742 12.5002 29.4992 12.5002 29.1492V28.5242H16.2502Z" fill="white"/>
<path d="M16.2502 28.5242H18.2502V26.5242H16.2502V28.5242ZM12.5002 28.5242V26.5242H10.5002V28.5242H12.5002ZM14.2502 28.5242V29.1492H18.2502V28.5242H14.2502ZM14.2502 29.1492C14.2502 30.6037 15.4206 31.7742 16.8752 31.7742V27.7742C17.6297 27.7742 18.2502 28.3946 18.2502 29.1492H14.2502ZM16.8752 27.7742H11.8752V31.7742H16.8752V27.7742ZM11.8752 31.7742C13.3298 31.7742 14.5002 30.6037 14.5002 29.1492H10.5002C10.5002 28.3946 11.1206 27.7742 11.8752 27.7742V31.7742ZM14.5002 29.1492V28.5242H10.5002V29.1492H14.5002ZM12.5002 30.5242H16.2502V26.5242H12.5002V30.5242Z" fill="white" mask="url(#path-11-inside-6)"/>
<mask id="path-13-inside-7" fill="white">
<path d="M13.1252 6.02417C13.4752 6.02417 13.7502 6.29917 13.7502 6.64917C13.7502 6.99916 13.4752 7.27416 13.1252 7.27416H10.6252C10.2752 7.27416 10.0002 6.99916 10.0002 6.64917C10.0002 6.29917 10.2752 6.02417 10.6252 6.02417H13.1252Z"/>
</mask>
<path d="M13.1252 6.02417C13.4752 6.02417 13.7502 6.29917 13.7502 6.64917C13.7502 6.99916 13.4752 7.27416 13.1252 7.27416H10.6252C10.2752 7.27416 10.0002 6.99916 10.0002 6.64917C10.0002 6.29917 10.2752 6.02417 10.6252 6.02417H13.1252Z" fill="white"/>
<path d="M13.1252 8.02417C12.3706 8.02417 11.7502 7.40375 11.7502 6.64917H15.7502C15.7502 5.19459 14.5797 4.02417 13.1252 4.02417V8.02417ZM11.7502 6.64917C11.7502 5.89458 12.3706 5.27416 13.1252 5.27416V9.27416C14.5797 9.27416 15.7502 8.10374 15.7502 6.64917H11.7502ZM13.1252 5.27416H10.6252V9.27416H13.1252V5.27416ZM10.6252 5.27416C11.3797 5.27416 12.0002 5.89458 12.0002 6.64917H8.00015C8.00015 8.10374 9.17059 9.27416 10.6252 9.27416V5.27416ZM12.0002 6.64917C12.0002 7.40375 11.3797 8.02417 10.6252 8.02417V4.02417C9.17059 4.02417 8.00015 5.19459 8.00015 6.64917H12.0002ZM10.6252 8.02417H13.1252V4.02417H10.6252V8.02417Z" fill="white" mask="url(#path-13-inside-7)"/>
<mask id="path-15-inside-8" fill="white">
<path d="M13.7502 10.3992C13.7502 10.7492 13.4752 11.0242 13.1252 11.0242H10.6252C10.2752 11.0242 10.0002 10.7492 10.0002 10.3992C10.0002 10.0492 10.2752 9.77417 10.6252 9.77417H13.1252C13.4752 9.77417 13.7502 10.0492 13.7502 10.3992Z"/>
</mask>
<path d="M13.7502 10.3992C13.7502 10.7492 13.4752 11.0242 13.1252 11.0242H10.6252C10.2752 11.0242 10.0002 10.7492 10.0002 10.3992C10.0002 10.0492 10.2752 9.77417 10.6252 9.77417H13.1252C13.4752 9.77417 13.7502 10.0492 13.7502 10.3992Z" fill="white"/>
<path d="M11.7502 10.3992C11.7502 9.6446 12.3706 9.02417 13.1252 9.02417V13.0242C14.5797 13.0242 15.7502 11.8537 15.7502 10.3992H11.7502ZM13.1252 9.02417H10.6252V13.0242H13.1252V9.02417ZM10.6252 9.02417C11.3797 9.02417 12.0002 9.6446 12.0002 10.3992H8.00015C8.00015 11.8537 9.17058 13.0242 10.6252 13.0242V9.02417ZM12.0002 10.3992C12.0002 11.1537 11.3797 11.7742 10.6252 11.7742V7.77417C9.17058 7.77417 8.00015 8.9446 8.00015 10.3992H12.0002ZM10.6252 11.7742H13.1252V7.77417H10.6252V11.7742ZM13.1252 11.7742C12.3706 11.7742 11.7502 11.1537 11.7502 10.3992H15.7502C15.7502 8.9446 14.5797 7.77417 13.1252 7.77417V11.7742Z" fill="white" mask="url(#path-15-inside-8)"/>
<mask id="path-17-inside-9" fill="white">
<path d="M13.1252 13.5242C13.4752 13.5242 13.7502 13.7992 13.7502 14.1492C13.7502 14.4992 13.4752 14.7742 13.1252 14.7742H10.6252C10.2752 14.7742 10.0002 14.4992 10.0002 14.1492C10.0002 13.7992 10.2752 13.5242 10.6252 13.5242H13.1252Z"/>
</mask>
<path d="M13.1252 13.5242C13.4752 13.5242 13.7502 13.7992 13.7502 14.1492C13.7502 14.4992 13.4752 14.7742 13.1252 14.7742H10.6252C10.2752 14.7742 10.0002 14.4992 10.0002 14.1492C10.0002 13.7992 10.2752 13.5242 10.6252 13.5242H13.1252Z" fill="white"/>
<path d="M13.1252 15.5242C12.3706 15.5242 11.7502 14.9037 11.7502 14.1492H15.7502C15.7502 12.6946 14.5797 11.5242 13.1252 11.5242V15.5242ZM11.7502 14.1492C11.7502 13.3946 12.3706 12.7742 13.1252 12.7742V16.7742C14.5797 16.7742 15.7502 15.6037 15.7502 14.1492H11.7502ZM13.1252 12.7742H10.6252V16.7742H13.1252V12.7742ZM10.6252 12.7742C11.3797 12.7742 12.0002 13.3946 12.0002 14.1492H8.00015C8.00015 15.6037 9.17056 16.7742 10.6252 16.7742V12.7742ZM12.0002 14.1492C12.0002 14.9037 11.3797 15.5242 10.6252 15.5242V11.5242C9.17056 11.5242 8.00015 12.6946 8.00015 14.1492H12.0002ZM10.6252 15.5242H13.1252V11.5242H10.6252V15.5242Z" fill="white" mask="url(#path-17-inside-9)"/>
<mask id="path-19-inside-10" fill="white">
<path d="M13.1252 17.2742C13.4752 17.2742 13.7502 17.5492 13.7502 17.8992C13.7502 18.2492 13.4752 18.5242 13.1252 18.5242H10.6252C10.2752 18.5242 10.0002 18.2492 10.0002 17.8992C10.0002 17.5492 10.2752 17.2742 10.6252 17.2742H13.1252Z"/>
</mask>
<path d="M13.1252 17.2742C13.4752 17.2742 13.7502 17.5492 13.7502 17.8992C13.7502 18.2492 13.4752 18.5242 13.1252 18.5242H10.6252C10.2752 18.5242 10.0002 18.2492 10.0002 17.8992C10.0002 17.5492 10.2752 17.2742 10.6252 17.2742H13.1252Z" fill="white"/>
<path d="M13.1252 19.2742C12.3706 19.2742 11.7502 18.6537 11.7502 17.8992H15.7502C15.7502 16.4446 14.5797 15.2742 13.1252 15.2742V19.2742ZM11.7502 17.8992C11.7502 17.1446 12.3706 16.5242 13.1252 16.5242V20.5242C14.5797 20.5242 15.7502 19.3537 15.7502 17.8992H11.7502ZM13.1252 16.5242H10.6252V20.5242H13.1252V16.5242ZM10.6252 16.5242C11.3797 16.5242 12.0002 17.1446 12.0002 17.8992H8.00015C8.00015 19.3537 9.17058 20.5242 10.6252 20.5242V16.5242ZM12.0002 17.8992C12.0002 18.6537 11.3797 19.2742 10.6252 19.2742V15.2742C9.17058 15.2742 8.00015 16.4446 8.00015 17.8992H12.0002ZM10.6252 19.2742H13.1252V15.2742H10.6252V19.2742Z" fill="white" mask="url(#path-19-inside-10)"/>
<mask id="path-21-inside-11" fill="white">
<path d="M7.5 17.8992C7.5 18.2492 7.225 18.5242 6.875 18.5242H4.375C4.025 18.5242 3.75 18.2492 3.75 17.8992C3.75 17.5492 4.025 17.2742 4.375 17.2742H6.875C7.225 17.2742 7.5 17.5492 7.5 17.8992Z"/>
</mask>
<path d="M7.5 17.8992C7.5 18.2492 7.225 18.5242 6.875 18.5242H4.375C4.025 18.5242 3.75 18.2492 3.75 17.8992C3.75 17.5492 4.025 17.2742 4.375 17.2742H6.875C7.225 17.2742 7.5 17.5492 7.5 17.8992Z" fill="white"/>
<path d="M5.5 17.8992C5.5 17.1446 6.12043 16.5242 6.875 16.5242V20.5242C8.32957 20.5242 9.5 19.3537 9.5 17.8992H5.5ZM6.875 16.5242H4.375V20.5242H6.875V16.5242ZM4.375 16.5242C5.12957 16.5242 5.75 17.1446 5.75 17.8992H1.75C1.75 19.3537 2.92043 20.5242 4.375 20.5242V16.5242ZM5.75 17.8992C5.75 18.6537 5.12957 19.2742 4.375 19.2742V15.2742C2.92043 15.2742 1.75 16.4446 1.75 17.8992H5.75ZM4.375 19.2742H6.875V15.2742H4.375V19.2742ZM6.875 19.2742C6.12043 19.2742 5.5 18.6537 5.5 17.8992H9.5C9.5 16.4446 8.32957 15.2742 6.875 15.2742V19.2742Z" fill="white" mask="url(#path-21-inside-11)"/>
<mask id="path-23-inside-12" fill="white">
<path d="M6.875 6.02417C7.225 6.02417 7.5 6.29917 7.5 6.64917C7.5 6.99916 7.225 7.27416 6.875 7.27416H4.375C4.025 7.27416 3.75 6.99916 3.75 6.64917C3.75 6.29917 4.025 6.02417 4.375 6.02417H6.875Z"/>
</mask>
<path d="M6.875 6.02417C7.225 6.02417 7.5 6.29917 7.5 6.64917C7.5 6.99916 7.225 7.27416 6.875 7.27416H4.375C4.025 7.27416 3.75 6.99916 3.75 6.64917C3.75 6.29917 4.025 6.02417 4.375 6.02417H6.875Z" fill="white"/>
<path d="M6.875 8.02417C6.12044 8.02417 5.5 7.40375 5.5 6.64917H9.5C9.5 5.19459 8.32956 4.02417 6.875 4.02417V8.02417ZM5.5 6.64917C5.5 5.89458 6.12044 5.27416 6.875 5.27416V9.27416C8.32956 9.27416 9.5 8.10374 9.5 6.64917H5.5ZM6.875 5.27416H4.375V9.27416H6.875V5.27416ZM4.375 5.27416C5.12956 5.27416 5.75 5.89458 5.75 6.64917H1.75C1.75 8.10374 2.92044 9.27416 4.375 9.27416V5.27416ZM5.75 6.64917C5.75 7.40375 5.12956 8.02417 4.375 8.02417V4.02417C2.92044 4.02417 1.75 5.19459 1.75 6.64917H5.75ZM4.375 8.02417H6.875V4.02417H4.375V8.02417Z" fill="white" mask="url(#path-23-inside-12)"/>
<mask id="path-25-inside-13" fill="white">
<path d="M6.875 9.77417C7.225 9.77417 7.5 10.0492 7.5 10.3992C7.5 10.7492 7.225 11.0242 6.875 11.0242H4.375C4.025 11.0242 3.75 10.7492 3.75 10.3992C3.75 10.0492 4.025 9.77417 4.375 9.77417H6.875Z"/>
</mask>
<path d="M6.875 9.77417C7.225 9.77417 7.5 10.0492 7.5 10.3992C7.5 10.7492 7.225 11.0242 6.875 11.0242H4.375C4.025 11.0242 3.75 10.7492 3.75 10.3992C3.75 10.0492 4.025 9.77417 4.375 9.77417H6.875Z" fill="white"/>
<path d="M6.875 11.7742C6.12043 11.7742 5.5 11.1537 5.5 10.3992H9.5C9.5 8.9446 8.32957 7.77417 6.875 7.77417V11.7742ZM5.5 10.3992C5.5 9.6446 6.12043 9.02417 6.875 9.02417V13.0242C8.32957 13.0242 9.5 11.8537 9.5 10.3992H5.5ZM6.875 9.02417H4.375V13.0242H6.875V9.02417ZM4.375 9.02417C5.12957 9.02417 5.75 9.6446 5.75 10.3992H1.75C1.75 11.8537 2.92043 13.0242 4.375 13.0242V9.02417ZM5.75 10.3992C5.75 11.1537 5.12957 11.7742 4.375 11.7742V7.77417C2.92043 7.77417 1.75 8.9446 1.75 10.3992H5.75ZM4.375 11.7742H6.875V7.77417H4.375V11.7742Z" fill="white" mask="url(#path-25-inside-13)"/>
<mask id="path-27-inside-14" fill="white">
<path d="M6.875 13.5242C7.225 13.5242 7.5 13.7992 7.5 14.1492C7.5 14.4992 7.225 14.7742 6.875 14.7742H4.375C4.025 14.7742 3.75 14.4992 3.75 14.1492C3.75 13.7992 4.025 13.5242 4.375 13.5242H6.875Z"/>
</mask>
<path d="M6.875 13.5242C7.225 13.5242 7.5 13.7992 7.5 14.1492C7.5 14.4992 7.225 14.7742 6.875 14.7742H4.375C4.025 14.7742 3.75 14.4992 3.75 14.1492C3.75 13.7992 4.025 13.5242 4.375 13.5242H6.875Z" fill="white"/>
<path d="M6.875 15.5242C6.12041 15.5242 5.5 14.9037 5.5 14.1492H9.5C9.5 12.6946 8.32959 11.5242 6.875 11.5242V15.5242ZM5.5 14.1492C5.5 13.3946 6.12041 12.7742 6.875 12.7742V16.7742C8.32959 16.7742 9.5 15.6037 9.5 14.1492H5.5ZM6.875 12.7742H4.375V16.7742H6.875V12.7742ZM4.375 12.7742C5.12959 12.7742 5.75 13.3946 5.75 14.1492H1.75C1.75 15.6037 2.92041 16.7742 4.375 16.7742V12.7742ZM5.75 14.1492C5.75 14.9037 5.12959 15.5242 4.375 15.5242V11.5242C2.92041 11.5242 1.75 12.6946 1.75 14.1492H5.75ZM4.375 15.5242H6.875V11.5242H4.375V15.5242Z" fill="white" mask="url(#path-27-inside-14)"/>
<mask id="path-29-inside-15" fill="white">
<path d="M11.2498 22.8992C11.2498 22.5492 10.9623 22.2742 10.6248 22.2742H6.87485C6.52485 22.2742 6.24985 22.5492 6.24985 22.8992V28.5242H4.99985V22.8992C4.99985 21.8617 5.83735 21.0242 6.87485 21.0242H10.6248C11.6623 21.0242 12.4998 21.8617 12.4998 22.8992V28.5242H11.2498V22.8992Z"/>
</mask>
<path d="M11.2498 22.8992C11.2498 22.5492 10.9623 22.2742 10.6248 22.2742H6.87485C6.52485 22.2742 6.24985 22.5492 6.24985 22.8992V28.5242H4.99985V22.8992C4.99985 21.8617 5.83735 21.0242 6.87485 21.0242H10.6248C11.6623 21.0242 12.4998 21.8617 12.4998 22.8992V28.5242H11.2498V22.8992Z" fill="white"/>
<path d="M6.24985 28.5242V30.5242H8.24985V28.5242H6.24985ZM4.99985 28.5242H2.99985V30.5242H4.99985V28.5242ZM12.4998 28.5242V30.5242H14.4998V28.5242H12.4998ZM11.2498 28.5242H9.24985V30.5242H11.2498V28.5242ZM13.2498 22.8992C13.2498 21.4187 12.0408 20.2742 10.6248 20.2742V24.2742C9.88388 24.2742 9.24985 23.6797 9.24985 22.8992H13.2498ZM10.6248 20.2742H6.87485V24.2742H10.6248V20.2742ZM6.87485 20.2742C5.42028 20.2742 4.24985 21.4446 4.24985 22.8992H8.24985C8.24985 23.6537 7.62942 24.2742 6.87485 24.2742V20.2742ZM4.24985 22.8992V28.5242H8.24985V22.8992H4.24985ZM6.24985 26.5242H4.99985V30.5242H6.24985V26.5242ZM6.99985 28.5242V22.8992H2.99985V28.5242H6.99985ZM6.99985 22.8992C6.99985 22.9662 6.94192 23.0242 6.87485 23.0242V19.0242C4.73278 19.0242 2.99985 20.7571 2.99985 22.8992H6.99985ZM6.87485 23.0242H10.6248V19.0242H6.87485V23.0242ZM10.6248 23.0242C10.5578 23.0242 10.4998 22.9662 10.4998 22.8992H14.4998C14.4998 20.7571 12.7669 19.0242 10.6248 19.0242V23.0242ZM10.4998 22.8992V28.5242H14.4998V22.8992H10.4998ZM12.4998 26.5242H11.2498V30.5242H12.4998V26.5242ZM13.2498 28.5242V22.8992H9.24985V28.5242H13.2498Z" fill="white" mask="url(#path-29-inside-15)"/>
<mask id="path-31-inside-16" fill="white">
<path d="M6.24985 28.5242H11.2498H12.4998V29.1492C12.4998 29.4992 12.2248 29.7742 11.8748 29.7742H5.62485C5.27485 29.7742 4.99985 29.4992 4.99985 29.1492V28.5242H6.24985Z"/>
</mask>
<path d="M6.24985 28.5242H11.2498H12.4998V29.1492C12.4998 29.4992 12.2248 29.7742 11.8748 29.7742H5.62485C5.27485 29.7742 4.99985 29.4992 4.99985 29.1492V28.5242H6.24985Z" fill="white"/>
<path d="M12.4998 28.5242H14.4998V26.5242H12.4998V28.5242ZM4.99985 28.5242V26.5242H2.99985V28.5242H4.99985ZM6.24985 30.5242H11.2498V26.5242H6.24985V30.5242ZM11.2498 30.5242H12.4998V26.5242H11.2498V30.5242ZM10.4998 28.5242V29.1492H14.4998V28.5242H10.4998ZM10.4998 29.1492C10.4998 28.3946 11.1203 27.7742 11.8748 27.7742V31.7742C13.3294 31.7742 14.4998 30.6037 14.4998 29.1492H10.4998ZM11.8748 27.7742H5.62485V31.7742H11.8748V27.7742ZM5.62485 27.7742C6.37942 27.7742 6.99985 28.3946 6.99985 29.1492H2.99985C2.99985 30.6037 4.17028 31.7742 5.62485 31.7742V27.7742ZM6.99985 29.1492V28.5242H2.99985V29.1492H6.99985ZM4.99985 30.5242H6.24985V26.5242H4.99985V30.5242Z" fill="white" mask="url(#path-31-inside-16)"/>
<mask id="path-33-inside-17" fill="white">
<path d="M2.1875 0.0243362L15.925 2.11184C16.8375 2.26184 17.5 3.03684 17.5 3.96184V11.1368L17 11.0368C16.8125 10.9993 16.625 11.0493 16.475 11.1618C16.3375 11.2868 16.25 11.4618 16.25 11.6493V3.96184C16.25 3.64934 16.025 3.38684 15.725 3.33684L1.9875 1.26184C1.95 1.24934 1.9125 1.24934 1.875 1.24934C1.725 1.24934 1.5875 1.29934 1.475 1.39934C1.325 1.52434 1.25 1.68684 1.25 1.87434V27.8993C1.25 28.2493 1.5375 28.5243 1.875 28.5243H5V29.1493C5 29.4993 5.275 29.7743 5.625 29.7743H1.875C0.8375 29.7743 0 28.9368 0 27.8993V1.87434C0 1.32434 0.2375 0.799336 0.6625 0.449336C1.0875 0.0868363 1.6375 -0.0631638 2.1875 0.0243362Z"/>
</mask>
<path d="M2.1875 0.0243362L15.925 2.11184C16.8375 2.26184 17.5 3.03684 17.5 3.96184V11.1368L17 11.0368C16.8125 10.9993 16.625 11.0493 16.475 11.1618C16.3375 11.2868 16.25 11.4618 16.25 11.6493V3.96184C16.25 3.64934 16.025 3.38684 15.725 3.33684L1.9875 1.26184C1.95 1.24934 1.9125 1.24934 1.875 1.24934C1.725 1.24934 1.5875 1.29934 1.475 1.39934C1.325 1.52434 1.25 1.68684 1.25 1.87434V27.8993C1.25 28.2493 1.5375 28.5243 1.875 28.5243H5V29.1493C5 29.4993 5.275 29.7743 5.625 29.7743H1.875C0.8375 29.7743 0 28.9368 0 27.8993V1.87434C0 1.32434 0.2375 0.799336 0.6625 0.449336C1.0875 0.0868363 1.6375 -0.0631638 2.1875 0.0243362Z" fill="white"/>
<path d="M15.925 2.11184L16.2494 0.138323L16.2375 0.136356L16.2255 0.134535L15.925 2.11184ZM17.5 11.1368L17.1078 13.098L19.5 13.5764V11.1368H17.5ZM17 11.0368L17.3922 9.07568L17 11.0368ZM16.475 11.1618L15.275 9.56184L15.1995 9.61847L15.1297 9.68196L16.475 11.1618ZM15.725 3.33684L16.0538 1.36405L16.0388 1.36154L16.0237 1.35927L15.725 3.33684ZM1.9875 1.26184L1.35504 3.1592L1.51847 3.21368L1.6888 3.2394L1.9875 1.26184ZM1.475 1.39934L2.75537 2.93578L2.77988 2.91535L2.80373 2.89415L1.475 1.39934ZM5 28.5243H7V26.5243H5V28.5243ZM0.6625 0.449336L1.93391 1.9932L1.94725 1.98221L1.96039 1.971L0.6625 0.449336ZM1.88704 2.00164L15.6245 4.08914L16.2255 0.134535L2.48796 -1.95297L1.88704 2.00164ZM15.6006 4.08535C15.5825 4.08237 15.5545 4.0693 15.5326 4.04361C15.5104 4.01752 15.5 3.98486 15.5 3.96184H19.5C19.5 2.0507 18.1216 0.446079 16.2494 0.138323L15.6006 4.08535ZM15.5 3.96184V11.1368H19.5V3.96184H15.5ZM17.8922 9.17567L17.3922 9.07568L16.6078 12.998L17.1078 13.098L17.8922 9.17567ZM17.3922 9.07568C16.5968 8.91659 15.8378 9.13973 15.275 9.56184L17.675 12.7618C17.4122 12.9589 17.0282 13.0821 16.6078 12.998L17.3922 9.07568ZM15.1297 9.68196C14.629 10.1371 14.25 10.8295 14.25 11.6493H18.25C18.25 12.0941 18.046 12.4366 17.8203 12.6417L15.1297 9.68196ZM18.25 11.6493V3.96184H14.25V11.6493H18.25ZM18.25 3.96184C18.25 2.67585 17.3223 1.57547 16.0538 1.36405L15.3962 5.30962C14.7277 5.19821 14.25 4.62282 14.25 3.96184H18.25ZM16.0237 1.35927L2.2862 -0.715732L1.6888 3.2394L15.4263 5.3144L16.0237 1.35927ZM2.61996 -0.63553C2.40966 -0.705628 2.22578 -0.731489 2.09734 -0.742193C1.98194 -0.75181 1.88004 -0.750664 1.875 -0.750664V3.24934C1.90746 3.24934 1.84306 3.25048 1.76516 3.24399C1.67422 3.23641 1.52784 3.2168 1.35504 3.1592L2.61996 -0.63553ZM1.875 -0.750664C1.25562 -0.750664 0.639876 -0.534241 0.146273 -0.0954826L2.80373 2.89415C2.53512 3.13291 2.19438 3.24934 1.875 3.24934V-0.750664ZM0.194631 -0.137106C-0.407244 0.364456 -0.75 1.08795 -0.75 1.87434H3.25C3.25 2.05301 3.21279 2.25908 3.11589 2.46499C3.0191 2.67066 2.88596 2.82695 2.75537 2.93578L0.194631 -0.137106ZM-0.75 1.87434V27.8993H3.25V1.87434H-0.75ZM-0.75 27.8993C-0.75 29.3798 0.459028 30.5243 1.875 30.5243V26.5243C2.61597 26.5243 3.25 27.1188 3.25 27.8993H-0.75ZM1.875 30.5243H5V26.5243H1.875V30.5243ZM3 28.5243V29.1493H7V28.5243H3ZM3 29.1493C3 30.6039 4.17043 31.7743 5.625 31.7743V27.7743C6.37957 27.7743 7 28.3948 7 29.1493H3ZM5.625 27.7743H1.875V31.7743H5.625V27.7743ZM1.875 27.7743C1.94207 27.7743 2 27.8323 2 27.8993H-2C-2 30.0414 -0.267069 31.7743 1.875 31.7743V27.7743ZM2 27.8993V1.87434H-2V27.8993H2ZM2 1.87434C2 1.89659 1.98948 1.94744 1.93391 1.9932L-0.608914 -1.09452C-1.51448 -0.348766 -2 0.752081 -2 1.87434H2ZM1.96039 1.971C1.95058 1.97937 1.93355 1.98954 1.91222 1.99545C1.89137 2.00123 1.87693 2.00008 1.87327 1.9995L2.50173 -1.95082C1.38522 -2.12845 0.243429 -1.82192 -0.635393 -1.07233L1.96039 1.971Z" fill="white" mask="url(#path-33-inside-17)"/>
</svg>
