<svg width="32" height="29" viewBox="0 0 32 29" fill="none" xmlns="http://www.w3.org/2000/svg">
<path d="M29.0361 0.5H2.78613C1.33853 0.5 0.161133 1.6774 0.161133 3.125V22.375C0.161133 23.8226 1.33853 25 2.78613 25H11.8704L10.9954 26.75H8.03613C7.55278 26.75 7.16113 27.1417 7.16113 27.625C7.16113 28.1084 7.55278 28.5 8.03613 28.5H11.5326C11.5337 28.5 11.5347 28.5004 11.5354 28.5004C11.5361 28.5004 11.5372 28.5 11.5379 28.5H20.2844C20.2851 28.5 20.2861 28.5004 20.2868 28.5004C20.2879 28.5004 20.2889 28.5 20.2896 28.5H23.7861C24.2695 28.5 24.6611 28.1084 24.6611 27.625C24.6611 27.1417 24.2695 26.75 23.7861 26.75H20.8269L19.9519 25H29.0361C30.4837 25 31.6611 23.8226 31.6611 22.375V3.125C31.6611 1.6774 30.4837 0.5 29.0361 0.5ZM12.9519 26.75L13.8269 25H17.9954L18.8704 26.75H12.9519ZM29.9111 22.375C29.9111 22.8577 29.5184 23.25 29.0361 23.25H2.78613C2.30383 23.25 1.91113 22.8577 1.91113 22.375V3.125C1.91113 2.64235 2.30383 2.25 2.78613 2.25H29.0361C29.5184 2.25 29.9111 2.64235 29.9111 3.125V22.375Z" fill="white"/>
</svg>
