<svg width="35" height="44" viewBox="0 0 35 44" fill="none" xmlns="http://www.w3.org/2000/svg">
<path d="M30.625 3.5H4.375C2.9274 3.5 1.75 4.6774 1.75 6.125V25.375C1.75 26.8226 2.9274 28 4.375 28H13.4593L12.5843 29.75H9.625C9.14165 29.75 8.75 30.1417 8.75 30.625C8.75 31.1084 9.14165 31.5 9.625 31.5H13.1215C13.1226 31.5 13.1236 31.5004 13.1243 31.5004C13.125 31.5004 13.126 31.5 13.1267 31.5H21.8732C21.8739 31.5 21.875 31.5004 21.8757 31.5004C21.8767 31.5004 21.8778 31.5 21.8785 31.5H25.375C25.8583 31.5 26.25 31.1084 26.25 30.625C26.25 30.1417 25.8583 29.75 25.375 29.75H22.4157L21.5407 28H30.625C32.0726 28 33.25 26.8226 33.25 25.375V6.125C33.25 4.6774 32.0726 3.5 30.625 3.5ZM14.5407 29.75L15.4157 28H19.5842L20.4592 29.75H14.5407ZM31.5 25.375C31.5 25.8577 31.1073 26.25 30.625 26.25H4.375C3.8927 26.25 3.5 25.8577 3.5 25.375V6.125C3.5 5.64235 3.8927 5.25 4.375 5.25H30.625C31.1073 5.25 31.5 5.64235 31.5 6.125V25.375Z" fill="white"/>
<path d="M28.875 7H6.125C5.64165 7 5.25 7.39165 5.25 7.875V23.625C5.25 24.1083 5.64165 24.5 6.125 24.5H28.875C29.3583 24.5 29.75 24.1083 29.75 23.625V7.875C29.75 7.39165 29.3583 7 28.875 7ZM28 22.75H7V8.75H28V22.75Z" fill="white"/>
</svg>
