<svg width="30" height="30" viewBox="0 0 30 30" fill="none" xmlns="http://www.w3.org/2000/svg">
<path d="M12.245 25.4082C12.2066 25.3062 12.1934 25.2195 12.2064 25.1493C12.2194 25.0796 12.1748 25.0219 12.0726 24.9774C11.9704 24.9329 11.9194 24.8976 11.9194 24.8724C11.9194 24.8469 11.8462 24.8277 11.6993 24.8151C11.5526 24.8023 11.4793 24.7958 11.4793 24.7958H11.2307H11.0203H5.51008C4.66826 24.7958 3.94754 24.4963 3.34797 23.8964C2.74854 23.2969 2.44886 22.5764 2.44886 21.7347V8.26518C2.44886 7.42337 2.74847 6.70291 3.34797 6.10341C3.94754 5.50384 4.66826 5.20396 5.51008 5.20396H11.6325C11.7983 5.20396 11.9287 5.16281 12.0246 5.07972C12.1201 4.99682 12.1838 4.87238 12.2158 4.70659C12.2477 4.5408 12.2669 4.39109 12.2734 4.25713C12.2797 4.12331 12.2766 3.95417 12.2637 3.75011C12.2511 3.54612 12.2447 3.4186 12.2447 3.36733C12.2447 3.20154 12.184 3.05834 12.063 2.93691C11.9417 2.81602 11.7983 2.75537 11.6325 2.75537H5.51008C3.99237 2.75537 2.69446 3.29429 1.61656 4.37206C0.538919 5.44983 0 6.74754 0 8.26538V21.7346C0 23.2523 0.538919 24.5504 1.61656 25.6277C2.69446 26.706 3.99237 27.245 5.51008 27.245H11.6327C11.7986 27.245 11.9291 27.2033 12.0249 27.1207C12.1204 27.0377 12.184 26.9134 12.2161 26.7474C12.248 26.5818 12.2672 26.4313 12.2736 26.2979C12.2799 26.164 12.2769 25.9952 12.264 25.7911C12.2512 25.5868 12.245 25.4594 12.245 25.4082Z" fill="#BE1E2D"/>
<path d="M29.6364 14.1391L19.2283 3.73067C18.9862 3.48862 18.6991 3.36719 18.3674 3.36719C18.0358 3.36719 17.7487 3.48862 17.5062 3.73067C17.2639 3.97305 17.1428 4.26034 17.1428 4.59178V10.102H8.5714C8.23955 10.102 7.95267 10.2234 7.71028 10.4655C7.46789 10.7079 7.3468 10.9949 7.3468 11.3266V18.6736C7.3468 19.0052 7.46789 19.2923 7.71028 19.5346C7.95293 19.7765 8.23975 19.8982 8.5714 19.8982H17.1428V25.4084C17.1428 25.7398 17.2639 26.0271 17.5063 26.2693C17.7487 26.5117 18.0358 26.633 18.3675 26.633C18.6991 26.633 18.9862 26.5117 19.2284 26.2693L29.6364 15.8614C29.8788 15.6188 30 15.3321 30 15.0004C30 14.6688 29.8788 14.3815 29.6364 14.1391Z" fill="#BE1E2D"/>
</svg>
