<svg width="31" height="28" viewBox="0 0 31 28" fill="none" xmlns="http://www.w3.org/2000/svg">
<mask id="path-1-inside-1" fill="white">
<path d="M27.1217 0.585449H22.5633C22.32 0.585449 22.1229 0.782623 22.1229 1.02583C22.1229 1.26904 22.32 1.46621 22.5633 1.46621H27.1217C28.4498 1.46621 29.5304 2.54673 29.5304 3.87487V17.6336H24.4606C24.2174 17.6336 24.0202 17.8308 24.0202 18.074C24.0202 18.3172 24.2174 18.5143 24.4606 18.5143H29.4893C29.2817 19.6328 28.2995 20.4826 27.1218 20.4826H15.6176C15.3744 20.4826 15.1773 20.6798 15.1773 20.923C15.1773 21.1662 15.3744 21.3634 15.6176 21.3634H18.1376V23.0984C18.1376 23.204 18.1756 23.3062 18.2446 23.3861L19.2804 24.5861H11.6006L12.6364 23.3861C12.7054 23.3062 12.7434 23.204 12.7434 23.0984V21.3634H13.7408C13.9841 21.3634 14.1812 21.1662 14.1812 20.923C14.1812 20.6798 13.9841 20.4826 13.7408 20.4826H3.70055C2.52285 20.4826 1.54057 19.6328 1.333 18.5143H22.584C22.8272 18.5143 23.0243 18.3172 23.0243 18.074C23.0243 17.8308 22.8272 17.6336 22.584 17.6336H1.2919V3.87487C1.2919 2.54673 2.37236 1.46621 3.70055 1.46621H8.31769C8.56096 1.46621 8.75808 1.26904 8.75808 1.02583C8.75808 0.782623 8.56096 0.585449 8.31769 0.585449H3.70055C1.88677 0.585449 0.411133 2.06108 0.411133 3.87487V18.074C0.411133 19.8877 1.88677 21.3634 3.70055 21.3634H11.8627V22.9346L10.437 24.5861H9.85011C9.14749 24.5861 8.57587 25.1577 8.57587 25.8603V26.3068C8.57587 27.0094 9.14749 27.581 9.85011 27.581H20.9722C21.6748 27.581 22.2464 27.0094 22.2464 26.3068V25.8603C22.2464 25.1577 21.6748 24.5861 20.9722 24.5861H20.4439L19.0183 22.9346V21.3634H27.1217C28.9355 21.3634 30.4111 19.8877 30.4111 18.074V3.87487C30.4111 2.06108 28.9355 0.585449 27.1217 0.585449ZM21.3656 25.8603V26.3068C21.3656 26.5238 21.1891 26.7003 20.9722 26.7003H9.85011C9.63314 26.7003 9.45664 26.5238 9.45664 26.3068V25.8603C9.45664 25.6434 9.63314 25.4669 9.85011 25.4669H20.9722C21.1891 25.4669 21.3656 25.6434 21.3656 25.8603Z"/>
</mask>
<path d="M27.1217 0.585449H22.5633C22.32 0.585449 22.1229 0.782623 22.1229 1.02583C22.1229 1.26904 22.32 1.46621 22.5633 1.46621H27.1217C28.4498 1.46621 29.5304 2.54673 29.5304 3.87487V17.6336H24.4606C24.2174 17.6336 24.0202 17.8308 24.0202 18.074C24.0202 18.3172 24.2174 18.5143 24.4606 18.5143H29.4893C29.2817 19.6328 28.2995 20.4826 27.1218 20.4826H15.6176C15.3744 20.4826 15.1773 20.6798 15.1773 20.923C15.1773 21.1662 15.3744 21.3634 15.6176 21.3634H18.1376V23.0984C18.1376 23.204 18.1756 23.3062 18.2446 23.3861L19.2804 24.5861H11.6006L12.6364 23.3861C12.7054 23.3062 12.7434 23.204 12.7434 23.0984V21.3634H13.7408C13.9841 21.3634 14.1812 21.1662 14.1812 20.923C14.1812 20.6798 13.9841 20.4826 13.7408 20.4826H3.70055C2.52285 20.4826 1.54057 19.6328 1.333 18.5143H22.584C22.8272 18.5143 23.0243 18.3172 23.0243 18.074C23.0243 17.8308 22.8272 17.6336 22.584 17.6336H1.2919V3.87487C1.2919 2.54673 2.37236 1.46621 3.70055 1.46621H8.31769C8.56096 1.46621 8.75808 1.26904 8.75808 1.02583C8.75808 0.782623 8.56096 0.585449 8.31769 0.585449H3.70055C1.88677 0.585449 0.411133 2.06108 0.411133 3.87487V18.074C0.411133 19.8877 1.88677 21.3634 3.70055 21.3634H11.8627V22.9346L10.437 24.5861H9.85011C9.14749 24.5861 8.57587 25.1577 8.57587 25.8603V26.3068C8.57587 27.0094 9.14749 27.581 9.85011 27.581H20.9722C21.6748 27.581 22.2464 27.0094 22.2464 26.3068V25.8603C22.2464 25.1577 21.6748 24.5861 20.9722 24.5861H20.4439L19.0183 22.9346V21.3634H27.1217C28.9355 21.3634 30.4111 19.8877 30.4111 18.074V3.87487C30.4111 2.06108 28.9355 0.585449 27.1217 0.585449ZM21.3656 25.8603V26.3068C21.3656 26.5238 21.1891 26.7003 20.9722 26.7003H9.85011C9.63314 26.7003 9.45664 26.5238 9.45664 26.3068V25.8603C9.45664 25.6434 9.63314 25.4669 9.85011 25.4669H20.9722C21.1891 25.4669 21.3656 25.6434 21.3656 25.8603Z" fill="white"/>
<path d="M29.5304 17.6336V20.6336H32.5304V17.6336H29.5304ZM29.4893 18.5143L32.4389 19.0619L33.0975 15.5143H29.4893V18.5143ZM18.1376 21.3634H21.1376V18.3634H18.1376V21.3634ZM18.2446 23.3861L20.5156 21.4259L20.5153 21.4255L18.2446 23.3861ZM19.2804 24.5861V27.5861H25.833L21.5514 22.6258L19.2804 24.5861ZM11.6006 24.5861L9.32962 22.6258L5.04799 27.5861H11.6006V24.5861ZM12.6364 23.3861L10.3657 21.4255L10.3654 21.4259L12.6364 23.3861ZM12.7434 21.3634V18.3634H9.74336V21.3634H12.7434ZM1.333 18.5143V15.5143H-2.27498L-1.61664 19.0617L1.333 18.5143ZM1.2919 17.6336H-1.7081V20.6336H1.2919V17.6336ZM11.8627 21.3634H14.8627V18.3634H11.8627V21.3634ZM11.8627 22.9346L14.1336 24.8949L14.8627 24.0503V22.9346H11.8627ZM10.437 24.5861V27.5861H11.8105L12.708 26.5464L10.437 24.5861ZM20.4439 24.5861L18.173 26.5464L19.0705 27.5861H20.4439V24.5861ZM19.0183 22.9346H16.0183V24.0503L16.7474 24.8949L19.0183 22.9346ZM19.0183 21.3634V18.3634H16.0183V21.3634H19.0183ZM27.1217 -2.41455H22.5633V3.58545H27.1217V-2.41455ZM22.5633 -2.41455C20.6629 -2.41455 19.1229 -0.873971 19.1229 1.02583H25.1229C25.1229 2.43922 23.9771 3.58545 22.5633 3.58545V-2.41455ZM19.1229 1.02583C19.1229 2.92563 20.6629 4.46621 22.5633 4.46621V-1.53379C23.9771 -1.53379 25.1229 -0.387554 25.1229 1.02583H19.1229ZM22.5633 4.46621H27.1217V-1.53379H22.5633V4.46621ZM27.1217 4.46621C26.793 4.46621 26.5304 4.20359 26.5304 3.87487H32.5304C32.5304 0.889878 30.1067 -1.53379 27.1217 -1.53379V4.46621ZM26.5304 3.87487V17.6336H32.5304V3.87487H26.5304ZM29.5304 14.6336H24.4606V20.6336H29.5304V14.6336ZM24.4606 14.6336C22.5602 14.6336 21.0202 16.1742 21.0202 18.074H27.0202C27.0202 19.4873 25.8745 20.6336 24.4606 20.6336V14.6336ZM21.0202 18.074C21.0202 19.9738 22.5602 21.5143 24.4606 21.5143V15.5143C25.8745 15.5143 27.0202 16.6606 27.0202 18.074H21.0202ZM24.4606 21.5143H29.4893V15.5143H24.4606V21.5143ZM26.5397 17.9668C26.5904 17.6935 26.8238 17.4826 27.1218 17.4826V23.4826C29.7751 23.4826 31.973 21.5721 32.4389 19.0619L26.5397 17.9668ZM27.1218 17.4826H15.6176V23.4826H27.1218V17.4826ZM15.6176 17.4826C13.7173 17.4826 12.1773 19.0232 12.1773 20.923H18.1773C18.1773 22.3364 17.0315 23.4826 15.6176 23.4826V17.4826ZM12.1773 20.923C12.1773 22.8228 13.7173 24.3634 15.6176 24.3634V18.3634C17.0315 18.3634 18.1773 19.5096 18.1773 20.923H12.1773ZM15.6176 24.3634H18.1376V18.3634H15.6176V24.3634ZM15.1376 21.3634V23.0984H21.1376V21.3634H15.1376ZM15.1376 23.0984C15.1376 23.9225 15.4335 24.7209 15.9739 25.3467L20.5153 21.4255C20.9176 21.8914 21.1376 22.4855 21.1376 23.0984H15.1376ZM15.9736 25.3464L17.0094 26.5464L21.5514 22.6258L20.5156 21.4259L15.9736 25.3464ZM19.2804 21.5861H11.6006V27.5861H19.2804V21.5861ZM13.8716 26.5464L14.9074 25.3464L10.3654 21.4259L9.32962 22.6258L13.8716 26.5464ZM14.9071 25.3467C15.4474 24.7209 15.7434 23.9226 15.7434 23.0984H9.74336C9.74336 22.4854 9.96342 21.8914 10.3657 21.4255L14.9071 25.3467ZM15.7434 23.0984V21.3634H9.74336V23.0984H15.7434ZM12.7434 24.3634H13.7408V18.3634H12.7434V24.3634ZM13.7408 24.3634C15.6412 24.3634 17.1812 22.8228 17.1812 20.923H11.1812C11.1812 19.5096 12.3269 18.3634 13.7408 18.3634V24.3634ZM17.1812 20.923C17.1812 19.0232 15.6412 17.4826 13.7408 17.4826V23.4826C12.3269 23.4826 11.1812 22.3364 11.1812 20.923H17.1812ZM13.7408 17.4826H3.70055V23.4826H13.7408V17.4826ZM3.70055 17.4826C3.9984 17.4826 4.23188 17.6934 4.28263 17.9669L-1.61664 19.0617C-1.15074 21.5722 1.04731 23.4826 3.70055 23.4826V17.4826ZM1.333 21.5143H22.584V15.5143H1.333V21.5143ZM22.584 21.5143C24.4843 21.5143 26.0243 19.9738 26.0243 18.074H20.0243C20.0243 16.6606 21.1701 15.5143 22.584 15.5143V21.5143ZM26.0243 18.074C26.0243 16.1742 24.4843 14.6336 22.584 14.6336V20.6336C21.1701 20.6336 20.0243 19.4873 20.0243 18.074H26.0243ZM22.584 14.6336H1.2919V20.6336H22.584V14.6336ZM4.2919 17.6336V3.87487H-1.7081V17.6336H4.2919ZM4.2919 3.87487C4.2919 4.20354 4.02926 4.46621 3.70055 4.46621V-1.53379C0.715458 -1.53379 -1.7081 0.889928 -1.7081 3.87487H4.2919ZM3.70055 4.46621H8.31769V-1.53379H3.70055V4.46621ZM8.31769 4.46621C10.2181 4.46621 11.7581 2.92563 11.7581 1.02583H5.75808C5.75808 -0.387554 6.90385 -1.53379 8.31769 -1.53379V4.46621ZM11.7581 1.02583C11.7581 -0.873971 10.2181 -2.41455 8.31769 -2.41455V3.58545C6.90385 3.58545 5.75808 2.43922 5.75808 1.02583H11.7581ZM8.31769 -2.41455H3.70055V3.58545H8.31769V-2.41455ZM3.70055 -2.41455C0.229911 -2.41455 -2.58887 0.404227 -2.58887 3.87487H3.41113C3.41113 3.71794 3.54362 3.58545 3.70055 3.58545V-2.41455ZM-2.58887 3.87487V18.074H3.41113V3.87487H-2.58887ZM-2.58887 18.074C-2.58887 21.5446 0.229911 24.3634 3.70055 24.3634V18.3634C3.54362 18.3634 3.41113 18.2309 3.41113 18.074H-2.58887ZM3.70055 24.3634H11.8627V18.3634H3.70055V24.3634ZM8.86265 21.3634V22.9346H14.8627V21.3634H8.86265ZM9.59172 20.9743L8.16611 22.6258L12.708 26.5464L14.1336 24.8949L9.59172 20.9743ZM10.437 21.5861H9.85011V27.5861H10.437V21.5861ZM9.85011 21.5861C7.49063 21.5861 5.57587 23.5009 5.57587 25.8603H11.5759C11.5759 26.8146 10.8043 27.5861 9.85011 27.5861V21.5861ZM5.57587 25.8603V26.3068H11.5759V25.8603H5.57587ZM5.57587 26.3068C5.57587 28.6663 7.49064 30.581 9.85011 30.581V24.581C10.8043 24.581 11.5759 25.3526 11.5759 26.3068H5.57587ZM9.85011 30.581H20.9722V24.581H9.85011V30.581ZM20.9722 30.581C23.3316 30.581 25.2464 28.6663 25.2464 26.3068H19.2464C19.2464 25.3526 20.0179 24.581 20.9722 24.581V30.581ZM25.2464 26.3068V25.8603H19.2464V26.3068H25.2464ZM25.2464 25.8603C25.2464 23.5009 23.3316 21.5861 20.9722 21.5861V27.5861C20.0179 27.5861 19.2464 26.8146 19.2464 25.8603H25.2464ZM20.9722 21.5861H20.4439V27.5861H20.9722V21.5861ZM22.7149 22.6258L21.2893 20.9743L16.7474 24.8949L18.173 26.5464L22.7149 22.6258ZM22.0183 22.9346V21.3634H16.0183V22.9346H22.0183ZM19.0183 24.3634H27.1217V18.3634H19.0183V24.3634ZM27.1217 24.3634C30.5924 24.3634 33.4111 21.5446 33.4111 18.074H27.4111C27.4111 18.2309 27.2786 18.3634 27.1217 18.3634V24.3634ZM33.4111 18.074V3.87487H27.4111V18.074H33.4111ZM33.4111 3.87487C33.4111 0.404225 30.5924 -2.41455 27.1217 -2.41455V3.58545C27.2786 3.58545 27.4111 3.71794 27.4111 3.87487H33.4111ZM18.3656 25.8603V26.3068H24.3656V25.8603H18.3656ZM18.3656 26.3068C18.3656 24.8669 19.5323 23.7003 20.9722 23.7003V29.7003C22.846 29.7003 24.3656 28.1806 24.3656 26.3068H18.3656ZM20.9722 23.7003H9.85011V29.7003H20.9722V23.7003ZM9.85011 23.7003C11.29 23.7003 12.4566 24.8669 12.4566 26.3068H6.45664C6.45664 28.1806 7.9763 29.7003 9.85011 29.7003V23.7003ZM12.4566 26.3068V25.8603H6.45664V26.3068H12.4566ZM12.4566 25.8603C12.4566 27.3002 11.29 28.4669 9.85011 28.4669V22.4669C7.97628 22.4669 6.45664 23.9865 6.45664 25.8603H12.4566ZM9.85011 28.4669H20.9722V22.4669H9.85011V28.4669ZM20.9722 28.4669C19.5322 28.4669 18.3656 27.3002 18.3656 25.8603H24.3656C24.3656 23.9865 22.846 22.4669 20.9722 22.4669V28.4669Z" fill="white" mask="url(#path-1-inside-1)"/>
</svg>
