<svg width="30" height="30" viewBox="0 0 30 30" fill="none" xmlns="http://www.w3.org/2000/svg">
<mask id="path-1-inside-1" fill="white">
<path d="M26.7106 2.58496H22.1522C21.9089 2.58496 21.7118 2.78213 21.7118 3.02534C21.7118 3.26855 21.9089 3.46573 22.1522 3.46573H26.7106C28.0387 3.46573 29.1192 4.54625 29.1192 5.87438V19.6331H24.0495C23.8062 19.6331 23.6091 19.8303 23.6091 20.0735C23.6091 20.3167 23.8062 20.5139 24.0495 20.5139H29.0782C28.8706 21.6323 27.8883 22.4821 26.7106 22.4821H15.2065C14.9632 22.4821 14.7661 22.6793 14.7661 22.9225C14.7661 23.1657 14.9632 23.3629 15.2065 23.3629H17.7265V25.0979C17.7265 25.2035 17.7644 25.3057 17.8335 25.3857L18.8693 26.5856H11.1895L12.2252 25.3857C12.2943 25.3057 12.3322 25.2035 12.3322 25.0979V23.3629H13.3297C13.5729 23.3629 13.77 23.1657 13.77 22.9225C13.77 22.6793 13.5729 22.4821 13.3297 22.4821H3.28942C2.11172 22.4821 1.12943 21.6323 0.921866 20.5139H22.1728C22.4161 20.5139 22.6132 20.3167 22.6132 20.0735C22.6132 19.8303 22.4161 19.6331 22.1728 19.6331H0.880764V5.87438C0.880764 4.54625 1.96123 3.46573 3.28942 3.46573H7.90656C8.14983 3.46573 8.34694 3.26855 8.34694 3.02534C8.34694 2.78213 8.14983 2.58496 7.90656 2.58496H3.28942C1.47563 2.58496 0 4.06059 0 5.87438V20.0735C0 21.8873 1.47563 23.3629 3.28942 23.3629H11.4515V24.9341L10.0259 26.5856H9.43897C8.73636 26.5856 8.16474 27.1572 8.16474 27.8598V28.3063C8.16474 29.0089 8.73636 29.5806 9.43897 29.5806H20.561C21.2636 29.5806 21.8353 29.0089 21.8353 28.3063V27.8598C21.8353 27.1572 21.2636 26.5856 20.561 26.5856H20.0328L18.6072 24.9341V23.3629H26.7106C28.5244 23.3629 30 21.8873 30 20.0735V5.87438C30 4.06059 28.5244 2.58496 26.7106 2.58496ZM20.9545 27.8598V28.3063C20.9545 28.5233 20.778 28.6998 20.561 28.6998H9.43897C9.22201 28.6998 9.04551 28.5233 9.04551 28.3063V27.8598C9.04551 27.6429 9.22201 27.4664 9.43897 27.4664H20.561C20.778 27.4664 20.9545 27.6429 20.9545 27.8598Z"/>
</mask>
<path d="M26.7106 2.58496H22.1522C21.9089 2.58496 21.7118 2.78213 21.7118 3.02534C21.7118 3.26855 21.9089 3.46573 22.1522 3.46573H26.7106C28.0387 3.46573 29.1192 4.54625 29.1192 5.87438V19.6331H24.0495C23.8062 19.6331 23.6091 19.8303 23.6091 20.0735C23.6091 20.3167 23.8062 20.5139 24.0495 20.5139H29.0782C28.8706 21.6323 27.8883 22.4821 26.7106 22.4821H15.2065C14.9632 22.4821 14.7661 22.6793 14.7661 22.9225C14.7661 23.1657 14.9632 23.3629 15.2065 23.3629H17.7265V25.0979C17.7265 25.2035 17.7644 25.3057 17.8335 25.3857L18.8693 26.5856H11.1895L12.2252 25.3857C12.2943 25.3057 12.3322 25.2035 12.3322 25.0979V23.3629H13.3297C13.5729 23.3629 13.77 23.1657 13.77 22.9225C13.77 22.6793 13.5729 22.4821 13.3297 22.4821H3.28942C2.11172 22.4821 1.12943 21.6323 0.921866 20.5139H22.1728C22.4161 20.5139 22.6132 20.3167 22.6132 20.0735C22.6132 19.8303 22.4161 19.6331 22.1728 19.6331H0.880764V5.87438C0.880764 4.54625 1.96123 3.46573 3.28942 3.46573H7.90656C8.14983 3.46573 8.34694 3.26855 8.34694 3.02534C8.34694 2.78213 8.14983 2.58496 7.90656 2.58496H3.28942C1.47563 2.58496 0 4.06059 0 5.87438V20.0735C0 21.8873 1.47563 23.3629 3.28942 23.3629H11.4515V24.9341L10.0259 26.5856H9.43897C8.73636 26.5856 8.16474 27.1572 8.16474 27.8598V28.3063C8.16474 29.0089 8.73636 29.5806 9.43897 29.5806H20.561C21.2636 29.5806 21.8353 29.0089 21.8353 28.3063V27.8598C21.8353 27.1572 21.2636 26.5856 20.561 26.5856H20.0328L18.6072 24.9341V23.3629H26.7106C28.5244 23.3629 30 21.8873 30 20.0735V5.87438C30 4.06059 28.5244 2.58496 26.7106 2.58496ZM20.9545 27.8598V28.3063C20.9545 28.5233 20.778 28.6998 20.561 28.6998H9.43897C9.22201 28.6998 9.04551 28.5233 9.04551 28.3063V27.8598C9.04551 27.6429 9.22201 27.4664 9.43897 27.4664H20.561C20.778 27.4664 20.9545 27.6429 20.9545 27.8598Z" fill="white"/>
<path d="M29.1192 19.6331V22.6331H32.1192V19.6331H29.1192ZM29.0782 20.5139L32.0278 21.0614L32.6864 17.5139H29.0782V20.5139ZM17.7265 23.3629H20.7265V20.3629H17.7265V23.3629ZM17.8335 25.3857L20.1045 23.4254L20.1042 23.4251L17.8335 25.3857ZM18.8693 26.5856V29.5856H25.4219L21.1402 24.6253L18.8693 26.5856ZM11.1895 26.5856L8.91848 24.6253L4.63686 29.5856H11.1895V26.5856ZM12.2252 25.3857L9.95455 23.4251L9.95426 23.4254L12.2252 25.3857ZM12.3322 23.3629V20.3629H9.33222V23.3629H12.3322ZM0.921866 20.5139V17.5139H-2.68611L-2.02777 21.0613L0.921866 20.5139ZM0.880764 19.6331H-2.11924V22.6331H0.880764V19.6331ZM11.4515 23.3629H14.4515V20.3629H11.4515V23.3629ZM11.4515 24.9341L13.7225 26.8944L14.4515 26.0499V24.9341H11.4515ZM10.0259 26.5856V29.5856H11.3994L12.2968 28.5459L10.0259 26.5856ZM20.0328 26.5856L17.7619 28.5459L18.6593 29.5856H20.0328V26.5856ZM18.6072 24.9341H15.6072V26.0499L16.3363 26.8944L18.6072 24.9341ZM18.6072 23.3629V20.3629H15.6072V23.3629H18.6072ZM26.7106 -0.415039H22.1522V5.58496H26.7106V-0.415039ZM22.1522 -0.415039C20.2518 -0.415039 18.7118 1.12554 18.7118 3.02534H24.7118C24.7118 4.43873 23.566 5.58496 22.1522 5.58496V-0.415039ZM18.7118 3.02534C18.7118 4.92514 20.2518 6.46572 22.1522 6.46572V0.465725C23.566 0.465725 24.7118 1.61196 24.7118 3.02534H18.7118ZM22.1522 6.46572H26.7106V0.465725H22.1522V6.46572ZM26.7106 6.46572C26.3819 6.46572 26.1192 6.2031 26.1192 5.87438H32.1192C32.1192 2.88939 29.6956 0.465725 26.7106 0.465725V6.46572ZM26.1192 5.87438V19.6331H32.1192V5.87438H26.1192ZM29.1192 16.6331H24.0495V22.6331H29.1192V16.6331ZM24.0495 16.6331C22.1491 16.6331 20.6091 18.1737 20.6091 20.0735H26.6091C26.6091 21.4869 25.4633 22.6331 24.0495 22.6331V16.6331ZM20.6091 20.0735C20.6091 21.9733 22.1491 23.5139 24.0495 23.5139V17.5139C25.4633 17.5139 26.6091 18.6601 26.6091 20.0735H20.6091ZM24.0495 23.5139H29.0782V17.5139H24.0495V23.5139ZM26.1286 19.9663C26.1793 19.693 26.4127 19.4821 26.7106 19.4821V25.4821C29.364 25.4821 31.5618 23.5716 32.0278 21.0614L26.1286 19.9663ZM26.7106 19.4821H15.2065V25.4821H26.7106V19.4821ZM15.2065 19.4821C13.3061 19.4821 11.7661 21.0227 11.7661 22.9225H17.7661C17.7661 24.3359 16.6204 25.4821 15.2065 25.4821V19.4821ZM11.7661 22.9225C11.7661 24.8223 13.3061 26.3629 15.2065 26.3629V20.3629C16.6204 20.3629 17.7661 21.5091 17.7661 22.9225H11.7661ZM15.2065 26.3629H17.7265V20.3629H15.2065V26.3629ZM14.7265 23.3629V25.0979H20.7265V23.3629H14.7265ZM14.7265 25.0979C14.7265 25.9221 15.0224 26.7204 15.5628 27.3463L20.1042 23.4251C20.5064 23.8909 20.7265 24.485 20.7265 25.0979H14.7265ZM15.5625 27.3459L16.5983 28.5459L21.1402 24.6253L20.1045 23.4254L15.5625 27.3459ZM18.8693 23.5856H11.1895V29.5856H18.8693V23.5856ZM13.4604 28.5459L14.4962 27.3459L9.95426 23.4254L8.91848 24.6253L13.4604 28.5459ZM14.4959 27.3463C15.0363 26.7204 15.3322 25.9221 15.3322 25.0979H9.33222C9.33222 24.485 9.55229 23.8909 9.95455 23.4251L14.4959 27.3463ZM15.3322 25.0979V23.3629H9.33222V25.0979H15.3322ZM12.3322 26.3629H13.3297V20.3629H12.3322V26.3629ZM13.3297 26.3629C15.23 26.3629 16.77 24.8223 16.77 22.9225H10.77C10.77 21.5091 11.9158 20.3629 13.3297 20.3629V26.3629ZM16.77 22.9225C16.77 21.0227 15.23 19.4821 13.3297 19.4821V25.4821C11.9158 25.4821 10.77 24.3359 10.77 22.9225H16.77ZM13.3297 19.4821H3.28942V25.4821H13.3297V19.4821ZM3.28942 19.4821C3.58726 19.4821 3.82074 19.6929 3.8715 19.9664L-2.02777 21.0613C-1.56188 23.5717 0.636177 25.4821 3.28942 25.4821V19.4821ZM0.921866 23.5139H22.1728V17.5139H0.921866V23.5139ZM22.1728 23.5139C24.0732 23.5139 25.6132 21.9733 25.6132 20.0735H19.6132C19.6132 18.6601 20.759 17.5139 22.1728 17.5139V23.5139ZM25.6132 20.0735C25.6132 18.1737 24.0732 16.6331 22.1728 16.6331V22.6331C20.759 22.6331 19.6132 21.4869 19.6132 20.0735H25.6132ZM22.1728 16.6331H0.880764V22.6331H22.1728V16.6331ZM3.88076 19.6331V5.87438H-2.11924V19.6331H3.88076ZM3.88076 5.87438C3.88076 6.20305 3.61813 6.46572 3.28942 6.46572V0.465725C0.304325 0.465725 -2.11924 2.88944 -2.11924 5.87438H3.88076ZM3.28942 6.46572H7.90656V0.465725H3.28942V6.46572ZM7.90656 6.46572C9.80694 6.46572 11.3469 4.92514 11.3469 3.02534H5.34694C5.34694 1.61196 6.49271 0.465725 7.90656 0.465725V6.46572ZM11.3469 3.02534C11.3469 1.12554 9.80694 -0.415039 7.90656 -0.415039V5.58496C6.49271 5.58496 5.34694 4.43873 5.34694 3.02534H11.3469ZM7.90656 -0.415039H3.28942V5.58496H7.90656V-0.415039ZM3.28942 -0.415039C-0.181222 -0.415039 -3 2.40374 -3 5.87438H3C3 5.71745 3.13249 5.58496 3.28942 5.58496V-0.415039ZM-3 5.87438V20.0735H3V5.87438H-3ZM-3 20.0735C-3 23.5441 -0.181222 26.3629 3.28942 26.3629V20.3629C3.13249 20.3629 3 20.2304 3 20.0735H-3ZM3.28942 26.3629H11.4515V20.3629H3.28942V26.3629ZM8.45152 23.3629V24.9341H14.4515V23.3629H8.45152ZM9.18058 22.9738L7.75498 24.6253L12.2968 28.5459L13.7225 26.8944L9.18058 22.9738ZM10.0259 23.5856H9.43897V29.5856H10.0259V23.5856ZM9.43897 23.5856C7.0795 23.5856 5.16474 25.5004 5.16474 27.8598H11.1647C11.1647 28.8141 10.3932 29.5856 9.43897 29.5856V23.5856ZM5.16474 27.8598V28.3063H11.1647V27.8598H5.16474ZM5.16474 28.3063C5.16474 30.6658 7.07951 32.5806 9.43897 32.5806V26.5806C10.3932 26.5806 11.1647 27.3521 11.1647 28.3063H5.16474ZM9.43897 32.5806H20.561V26.5806H9.43897V32.5806ZM20.561 32.5806C22.9205 32.5806 24.8353 30.6658 24.8353 28.3063H18.8353C18.8353 27.3521 19.6068 26.5806 20.561 26.5806V32.5806ZM24.8353 28.3063V27.8598H18.8353V28.3063H24.8353ZM24.8353 27.8598C24.8353 25.5004 22.9205 23.5856 20.561 23.5856V29.5856C19.6068 29.5856 18.8353 28.8141 18.8353 27.8598H24.8353ZM20.561 23.5856H20.0328V29.5856H20.561V23.5856ZM22.3037 24.6253L20.8781 22.9738L16.3363 26.8944L17.7619 28.5459L22.3037 24.6253ZM21.6072 24.9341V23.3629H15.6072V24.9341H21.6072ZM18.6072 26.3629H26.7106V20.3629H18.6072V26.3629ZM26.7106 26.3629C30.1812 26.3629 33 23.5441 33 20.0735H27C27 20.2304 26.8675 20.3629 26.7106 20.3629V26.3629ZM33 20.0735V5.87438H27V20.0735H33ZM33 5.87438C33 2.40374 30.1812 -0.415039 26.7106 -0.415039V5.58496C26.8675 5.58496 27 5.71745 27 5.87438H33ZM17.9545 27.8598V28.3063H23.9545V27.8598H17.9545ZM17.9545 28.3063C17.9545 26.8664 19.1211 25.6998 20.561 25.6998V31.6998C22.4348 31.6998 23.9545 30.1801 23.9545 28.3063H17.9545ZM20.561 25.6998H9.43897V31.6998H20.561V25.6998ZM9.43897 25.6998C10.8789 25.6998 12.0455 26.8664 12.0455 28.3063H6.04551C6.04551 30.1802 7.56517 31.6998 9.43897 31.6998V25.6998ZM12.0455 28.3063V27.8598H6.04551V28.3063H12.0455ZM12.0455 27.8598C12.0455 29.2997 10.8789 30.4664 9.43897 30.4664V24.4664C7.56515 24.4664 6.04551 25.986 6.04551 27.8598H12.0455ZM9.43897 30.4664H20.561V24.4664H9.43897V30.4664ZM20.561 30.4664C19.1211 30.4664 17.9545 29.2997 17.9545 27.8598H23.9545C23.9545 25.986 22.4349 24.4664 20.561 24.4664V30.4664Z" fill="white" mask="url(#path-1-inside-1)"/>
<path d="M8.21699 8.8743C8.31232 8.8828 8.40662 8.88425 8.49938 8.87909L8.69065 9.85829C8.56337 9.88315 8.43688 9.88404 8.31586 9.86409C8.20787 9.55374 8.1206 9.23294 8.05584 8.90314C8.05584 8.90313 8.05584 8.90313 8.05584 8.90313C8.05583 8.90311 8.05583 8.90308 8.05582 8.90306C8.05247 8.88601 8.05016 8.86899 8.04884 8.85208M8.21699 8.8743L8.21724 8.87144L8.21725 8.87137L8.25533 8.44417C8.11841 8.52935 8.03581 8.68582 8.04884 8.85208M8.21699 8.8743C8.21373 8.87401 8.21048 8.87371 8.20723 8.87341C8.20722 8.87341 8.20721 8.87341 8.2072 8.87341C8.20713 8.8734 8.20704 8.87339 8.20696 8.87339C8.15352 8.86838 8.10079 8.86125 8.04884 8.85208M8.21699 8.8743C8.21817 8.8744 8.21936 8.87451 8.22054 8.87461L8.22088 8.87073L8.22089 8.87065L8.04884 8.85208M8.38823 6.94148L8.11626 6.91782L8.38823 6.94148ZM8.38823 6.94148L8.38928 6.94157L8.38823 6.94148ZM9.16769 9.63136C9.07185 9.36425 8.9936 9.08813 8.93442 8.80424C8.795 8.84515 8.64944 8.8707 8.49987 8.87906L8.6921 9.85801C8.87365 9.82236 9.0352 9.74231 9.16769 9.63136ZM20.8276 16.9611C20.8288 16.96 20.83 16.9589 20.8313 16.9577C20.823 16.9653 20.8169 16.9708 20.8138 16.9735L20.8276 16.9611Z" fill="white" stroke="white" stroke-width="3"/>
</svg>
