<svg width="35" height="30" viewBox="0 0 35 30" fill="none" xmlns="http://www.w3.org/2000/svg">
<path d="M6.43049 29.5586L6.4305 29.5584C6.17033 29.5402 5.95858 29.4309 5.81311 29.2525C5.68711 29.0979 5.61549 28.8972 5.59934 28.6714H5.59113V28.5714C5.59113 26.3674 6.1861 24.3063 7.21511 22.5363H1.47114C1.20354 22.5363 0.978494 22.438 0.820037 22.262C0.662786 22.0874 0.578255 21.8443 0.573165 21.5653M6.43049 29.5586L0.673143 21.5632M6.43049 29.5586L6.43747 29.5586L28.3354 29.5633C28.8319 29.5633 29.2334 29.1618 29.2334 28.6653C29.2334 26.5259 28.5901 24.2899 27.5719 22.5363H33.3534C33.8499 22.5363 34.2514 22.1347 34.2514 21.6383L34.2514 21.637C34.2002 17.6148 31.9117 14.2232 28.3355 12.813C30.2866 11.6256 31.5429 9.48201 31.5429 7.10066C31.5429 1.37132 24.8264 -1.65644 20.5989 2.08796C18.5745 1.24191 16.2501 1.2419 14.2257 2.08793C13.0358 1.03254 11.5011 0.438317 9.88295 0.438317C3.19186 0.438317 0.797166 9.38614 6.48857 12.8134M6.43049 29.5586L6.71913 12.8321C6.68137 12.8108 6.64395 12.7893 6.60687 12.7675C6.56731 12.7825 6.52788 12.7978 6.48857 12.8134M0.573165 21.5653C0.573163 21.5652 0.573161 21.5651 0.573159 21.565L0.673143 21.5632M0.573165 21.5653C0.573168 21.5654 0.57317 21.5655 0.573173 21.5656L0.673143 21.5632M0.573165 21.5653C0.480057 17.7744 2.98534 14.2037 6.48857 12.8134M0.673143 21.5632C0.580328 17.7902 3.0935 14.2329 6.59789 12.878C6.56113 12.8567 6.52469 12.8352 6.48857 12.8134M23.3017 12.5932L23.3017 12.5932C20.9762 17.6463 13.8436 17.6508 11.5182 12.5933C9.4602 8.11194 12.7664 3.24867 17.3929 3.24823C22.2989 3.30875 25.2952 8.26398 23.3017 12.5932ZM7.39039 22.4363H7.27389L7.33094 22.5363C7.3506 22.5028 7.37042 22.4695 7.39039 22.4363ZM28.3394 3.6551L28.3395 3.65516C31.2048 6.54772 29.4374 11.5236 25.4508 11.9404C26.3247 8.56665 25.0317 5.04899 22.2847 3.04177C24.1813 1.77015 26.7172 2.01488 28.3394 3.6551ZM10.1941 13.9672C10.9947 15.3748 12.1857 16.5324 13.6286 17.273C11.6278 17.9563 9.8629 19.1617 8.49926 20.7403H2.41233C2.82772 16.8084 6.17472 13.8178 10.1941 13.9672ZM26.2877 20.7403C24.929 19.1711 23.1734 17.9618 21.1817 17.2822C22.6295 16.5377 23.8294 15.3797 24.6306 13.9672C28.6499 13.8179 31.9968 16.8084 32.4122 20.7403H26.2877ZM7.41801 27.7673C7.60451 25.3479 8.68033 23.0617 10.3155 21.4082C16.3907 15.2682 26.7185 19.272 27.369 27.7673H7.41801ZM5.07763 7.10066C5.07763 3.18225 9.39148 0.920198 12.5401 3.04163C9.79296 5.04877 8.49989 8.56643 9.37369 11.9402C6.93771 11.6801 5.07763 9.5973 5.07763 7.10066Z" fill="white" stroke="white" stroke-width="0.2"/>
</svg>
